<?xml version="1.0" encoding="utf-8"?>
<!-- Generator: Adobe Illustrator 26.0.2, SVG Export Plug-In . SVG Version: 6.00 Build 0)  -->
<svg version="1.1" id="Livello_1" xmlns="http://www.w3.org/2000/svg" xmlns:xlink="http://www.w3.org/1999/xlink" x="0px" y="0px"
	 viewBox="0 0 1920 426" style="enable-background:new 0 0 1920 426;" xml:space="preserve">
<style type="text/css">
	.st0{fill:#FFFFFF;}
</style>
<g>
	<path class="st0" d="M959,0.5c6.5,0,13,0,19.5,0c2.8,0.3,5.5,0.6,8.3,0.9c13.9,1.6,26,7,36,16.9c9.4,9.3,16,20.6,22.1,32.2
		c18,34.2,35.9,68.5,54.1,102.6c17.3,32.5,34.7,64.9,50.5,98.2c1.8,3.8,3.6,7.7,5.6,11.9c0.3-0.9,0.4-1.4,0.5-1.8
		c5.5-22.9,10.6-45.9,16.6-68.6c16.2-60.9,32.8-121.8,49.1-182.7c0.6-2.3,1.6-2.9,3.9-2.9c25,0.1,49.9,0.1,74.9,0.1
		c200.3,0,400.6,0,600.9,0c1.1,0,2.2,0,3.7,0c-0.7,1-0.9,1.4-1.2,1.8c-26.2,34.3-52.5,68.6-78.6,103c-1.3,1.7-2.6,2.2-4.6,2.2
		c-74.8,0-149.5,0-224.3,0c-92.8,0-185.5,0-278.3,0c-1.7,0-2.7,0.1-3.3,2.1c-22.7,77.5-45.5,154.9-68.3,232.3
		c-3.1,10.4-5.8,21-9.9,31.1c-8.5,21.1-23.4,36-45.6,42.6c-5,1.5-10.3,2.1-15.4,3.1c-4.5,0-9,0-13.5,0c-0.7-0.1-1.3-0.3-2-0.4
		c-11.6-1.1-22.3-4.6-32.1-11c-12.8-8.2-22-19.8-29.4-32.8c-21-37-42-74-62.9-111.1c-23.5-41.8-47.3-83.4-68.2-126.6
		c-0.2-0.4-0.5-0.6-0.9-1.1c-9.3,21.3-20,41.7-31.2,61.8c-30,53.7-60.1,107.4-90.3,161c-5.4,9.6-10.8,19.3-17,28.4
		c-9.7,14.1-22.9,24-39.5,28.7c-5.3,1.5-10.7,2.1-16.1,3.1c-4.3,0-8.7,0-13,0c-0.8-0.1-1.5-0.3-2.3-0.4
		c-14.2-1.5-26.9-6.6-37.9-15.8c-12.8-10.8-20.5-24.7-25.1-40.6c-23.1-80.1-46.3-160.1-69.4-240.2c-1.4-4.7-2.8-9.4-4.2-14.3
		c-200.1,0-400,0-600.1,0c0.5-2.9,0.9-5.6,1.5-8.2c5.2-26.2,17.9-47.8,39.2-64.2c15.7-12.1,33.6-19.8,52.6-25
		c25.7-7,51.9-9.4,78.4-9.5c51.8-0.1,103.6,0,155.4,0c122.1,0,244.1,0,366.2,0c4.2,0,3.3-0.6,4.4,3.4
		c13.5,49.8,26.9,99.5,40.5,149.3c8.4,30.8,16.7,61.7,23,93c0.7,3.3,1.3,6.6,2.1,10.4c0.6-1.2,0.9-1.8,1.2-2.4
		c12.2-24.4,24.1-49.1,36.8-73.2c22.9-43.8,46.4-87.3,69.6-130.9c5.5-10.4,10.8-20.8,18-30.2c8.8-11.4,19.6-20.2,34-23.5
		C948.1,1.8,953.6,1.3,959,0.5z"/>
	<path class="st0" d="M1916,288.6c-0.9,8.9-1.4,17.9-2.9,26.7c-4,23.6-13.9,44.4-31.2,61.3c-13.9,13.5-30.5,22.5-48.6,28.9
		c-18.6,6.5-37.9,10.3-57.5,11.6c-14.9,1-29.9,1.6-44.9,1.6c-123.6,0.1-247.2,0.1-370.8,0.1c-1.1,0-2.2,0-3.9,0
		c2.2-2.9,4.1-5.4,6-7.8c24.8-32,49.5-64.1,74.3-96.1c1.2-1.5,2.3-2.1,4.2-2.1c103.5,0,207,0,310.5,0c8.4,0,16.7-0.7,24.6-3.7
		c10.8-4,16.3-11.8,16.8-23.2c0.2-3.8,0-7.8-0.8-11.5c-1.8-8.9-7.7-14.4-16-17.4c-7.9-2.9-16.1-3.7-24.4-3.7
		c-76.2,0-152.4,0-228.7-0.1c-22.2,0-44.1-2.3-65.5-8.3c-19.2-5.4-36.9-13.6-52-26.9c-14-12.4-23.6-27.6-29.1-45.5
		c-0.1-0.2-0.1-0.5-0.1-1c0.8-0.1,1.6-0.2,2.4-0.2c130,0,260.1-0.1,390.1,0.1c25.3,0,50.2,3.1,74.4,11.3
		c16.3,5.5,31.2,13.4,43.7,25.4c13.5,12.9,22.1,28.5,26,46.6c1.5,7,2,14.2,3,21.3c0.2,1.2,0.3,2.4,0.4,3.7
		C1916,282.8,1916,285.7,1916,288.6z"/>
	<path class="st0" d="M4,418.8c4.5-5.8,8.5-11,12.5-16.3c22.5-29.2,45.1-58.3,67.6-87.5c1.3-1.7,2.6-2.2,4.6-2.2
		c103.4,0,206.9,0,310.3,0c7.4,0,14.7-0.6,21.8-2.7c15.7-4.6,20.1-15.2,19.8-28.5c-0.2-7-1.9-13.5-7.1-18.5
		c-4.4-4.3-9.9-6.7-15.8-7.7c-6.1-1-12.3-1.9-18.4-1.9c-75.8-0.1-151.7,0-227.5-0.1c-23.1,0-46-2.3-68.2-8.8
		c-19.2-5.6-36.9-14.1-51.8-27.7c-13.1-12-22.1-26.5-27.4-43.4c-0.2-0.5-0.3-1-0.5-1.8c0.9-0.1,1.7-0.1,2.5-0.1
		c130,0,260.1-0.1,390.1,0.1c26.7,0,53,3.4,78.3,12.7c16.4,6,31.2,14.6,43.2,27.4c13.1,13.9,20.9,30.6,23.8,49.3
		c4.1,26.2,2.3,52-6.9,76.9c-10,27-28.7,46.3-54.2,59.3c-17.4,8.9-35.9,14-55,17.2c-19.9,3.4-40,4.4-60.2,4.4
		c-125.8,0-251.6,0-377.3,0C6.9,418.8,5.8,418.8,4,418.8z"/>
</g>
</svg>
